<?xml version="1.0" encoding="utf-8"?>
<!-- Svg Vector Icons : http://www.onlinewebfonts.com/icon -->
<!DOCTYPE svg PUBLIC "-//W3C//DTD SVG 1.1//EN" "http://www.w3.org/Graphics/SVG/1.1/DTD/svg11.dtd">
<svg version="1.1" xmlns="http://www.w3.org/2000/svg" xmlns:xlink="http://www.w3.org/1999/xlink" x="0px" y="0px" viewBox="0 0 256 256" enable-background="new 0 0 256 256" xml:space="preserve">
<metadata> Svg Vector Icons : http://www.onlinewebfonts.com/icon </metadata>
<g><g><g><path stroke-width="6" fill-opacity="0" stroke="#000000"  d="M218.1,104.2L58.9,13.6C42,4,24.8,14.5,24.8,33.5v189.1c0,16.1,10.5,23.4,20.2,23.4c4.6,0,9.2-1.4,13.9-4.3l159.9-97.9c8-4.9,12.5-12.3,12.4-20.1C231.1,116,226.3,108.9,218.1,104.2z M208.1,126.4L48.2,224.2c-1.1,0.7-1.9,1-2.5,1.2c-0.2-0.6-0.3-1.5-0.3-2.8V33.5c0-2,0.4-2.9,0.4-3.2c0.6,0,1.7,0.4,3.1,1.2L208,122.1c2,1.1,2.6,2.1,2.7,1.9C210.6,124.2,209.9,125.2,208.1,126.4z"/></g><g></g><g></g><g></g><g></g><g></g><g></g><g></g><g></g><g></g><g></g><g></g><g></g><g></g><g></g><g></g></g></g>
</svg>